<svg width="9" height="7" viewBox="0 0 9 7" fill="none" xmlns="http://www.w3.org/2000/svg">
<path d="M8.69524 0.292804C8.88273 0.480344 8.98805 0.734667 8.98805 0.999847C8.98805 1.26503 8.88273 1.51935 8.69524 1.70689L3.69494 6.7072C3.5074 6.89468 3.25307 7 2.98789 7C2.72271 7 2.46839 6.89468 2.28085 6.7072L0.280729 4.70707C0.0985597 4.51846 -0.00224075 4.26584 3.78049e-05 4.00363C0.00231636 3.74142 0.107492 3.49059 0.292911 3.30517C0.478331 3.11975 0.729158 3.01457 0.991371 3.0123C1.25358 3.01002 1.5062 3.11082 1.69482 3.29299L2.98789 4.58607L7.28116 0.292804C7.4687 0.105322 7.72302 0 7.9882 0C8.25338 0 8.5077 0.105322 8.69524 0.292804Z" fill="#008638"/>
</svg>
