<svg width="56" height="16" viewBox="0 0 56 16" fill="none" xmlns="http://www.w3.org/2000/svg">
<rect x="0.5" y="0.5" width="15" height="15" rx="3.5" fill="#F9FAFB"/>
<rect x="0.5" y="0.5" width="15" height="15" rx="3.5" stroke="#D1D5DB"/>
<path fill-rule="evenodd" clip-rule="evenodd" d="M8 3.125C5.3075 3.125 3.125 5.3075 3.125 8C3.125 10.6925 5.3075 12.875 8 12.875C10.6925 12.875 12.875 10.6925 12.875 8C12.875 5.3075 10.6925 3.125 8 3.125ZM8.375 5C8.375 4.90054 8.33549 4.80516 8.26516 4.73483C8.19484 4.66451 8.09946 4.625 8 4.625C7.90054 4.625 7.80516 4.66451 7.73484 4.73483C7.66451 4.80516 7.625 4.90054 7.625 5V8C7.625 8.207 7.793 8.375 8 8.375H10.25C10.3495 8.375 10.4448 8.33549 10.5152 8.26516C10.5855 8.19484 10.625 8.09946 10.625 8C10.625 7.90054 10.5855 7.80516 10.5152 7.73484C10.4448 7.66451 10.3495 7.625 10.25 7.625H8.375V5Z" fill="#6B7280"/>
<rect x="20.5" y="0.5" width="15" height="15" rx="3.5" fill="#F9FAFB"/>
<rect x="20.5" y="0.5" width="15" height="15" rx="3.5" stroke="#D1D5DB"/>
<path fill-rule="evenodd" clip-rule="evenodd" d="M28 3.125C25.3075 3.125 23.125 5.3075 23.125 8C23.125 10.6925 25.3075 12.875 28 12.875C30.6925 12.875 32.875 10.6925 32.875 8C32.875 5.3075 30.6925 3.125 28 3.125ZM28.375 5C28.375 4.90054 28.3355 4.80516 28.2652 4.73483C28.1948 4.66451 28.0995 4.625 28 4.625C27.9005 4.625 27.8052 4.66451 27.7348 4.73483C27.6645 4.80516 27.625 4.90054 27.625 5V8C27.625 8.207 27.793 8.375 28 8.375H30.25C30.3495 8.375 30.4448 8.33549 30.5152 8.26516C30.5855 8.19484 30.625 8.09946 30.625 8C30.625 7.90054 30.5855 7.80516 30.5152 7.73484C30.4448 7.66451 30.3495 7.625 30.25 7.625H28.375V5Z" fill="#6B7280"/>
<rect x="40.5" y="0.5" width="15" height="15" rx="3.5" fill="#F9FAFB"/>
<rect x="40.5" y="0.5" width="15" height="15" rx="3.5" stroke="#D1D5DB"/>
<path fill-rule="evenodd" clip-rule="evenodd" d="M48 3.125C45.3075 3.125 43.125 5.3075 43.125 8C43.125 10.6925 45.3075 12.875 48 12.875C50.6925 12.875 52.875 10.6925 52.875 8C52.875 5.3075 50.6925 3.125 48 3.125ZM48.375 5C48.375 4.90054 48.3355 4.80516 48.2652 4.73483C48.1948 4.66451 48.0995 4.625 48 4.625C47.9005 4.625 47.8052 4.66451 47.7348 4.73483C47.6645 4.80516 47.625 4.90054 47.625 5V8C47.625 8.207 47.793 8.375 48 8.375H50.25C50.3495 8.375 50.4448 8.33549 50.5152 8.26516C50.5855 8.19484 50.625 8.09946 50.625 8C50.625 7.90054 50.5855 7.80516 50.5152 7.73484C50.4448 7.66451 50.3495 7.625 50.25 7.625H48.375V5Z" fill="#6B7280"/>
</svg>
